# xmcd
#
# Track frame offsets:
#	150
#	13339
#	28650
#	46171
#	61125
#	75009
#	87619
#	103193
#	120787
#	137854
#	152199
#	165078
#	182302
#	197773
#	208919
#	226923
#	246818
#	259770
#	276326
#	292759
#
# Disc length: 4112 seconds
#
# Revision: 1
# Processed by: cddbd v1.5.2PL0 Copyright (c) Steve Scherf et al.
# Submitted via: audiograbber 1.83.01
#
DISCID=04100e14
DTITLE=Various Artist - Warner Music Australia Country Sampler 1
DYEAR=1996
DGENRE=Country
TTITLE0=Keith Urban - Walkin' The Country
TTITLE1=Paul Brandt - My Heart Has A History
TTITLE2=Faith Hill - You Can't Lose Me
TTITLE3=Neal McCoy - Then You Can Tell Me Goodbye
TTITLE4=Tracy Lawrence - Time Marches On
TTITLE5=David Ball - Hangin' In And Hangin' On
TTITLE6=Thrasher Shiver - Closer
TTITLE7=John Michael Montgomery - Friends
TTITLE8=Cam Fletcher - Where I Should Have Been
TTITLE9=Bryan White - That's Another Song
TTITLE10=Mandy Barnett - Now That's All Right With Me
TTITLE11=Randy Travis - King Of The Road
TTITLE12=Travis Tritt - More Than You'll Ever Know
TTITLE13=Confederate Railroad - When And Where
TTITLE14=Ricky Skaggs - Cat's In The Cradle
TTITLE15=Iris Dement - The Way I Should
TTITLE16=The Cox Family - Runaway
TTITLE17=Steve Earle - Billy And Bonny
TTITLE18=Michael Martin Murphey - Cowboy Logic
TTITLE19=Jeff Foxworthy - More You Might Be A Redneck If
EXTD=
EXTT0=
EXTT1=
EXTT2=
EXTT3=
EXTT4=
EXTT5=
EXTT6=
EXTT7=
EXTT8=
EXTT9=
EXTT10=
EXTT11=
EXTT12=
EXTT13=
EXTT14=
EXTT15=
EXTT16=
EXTT17=
EXTT18=
EXTT19=
PLAYORDER=
